<svg width="32" height="31" viewBox="0 0 32 31" fill="none" xmlns="http://www.w3.org/2000/svg">
<rect x="0.722168" y="0.222168" width="30.5556" height="30.5556" rx="15.2778" fill="#525D45"/>
<g clip-path="url(#clip0_1069_1748)">
<path d="M9.00046 10.7C9.00046 10.1165 9.23225 9.55692 9.64483 9.14434C10.0574 8.73176 10.617 8.49997 11.2005 8.49997H12.2005C12.7814 8.49964 13.3386 8.26957 13.7505 7.85997L14.4505 7.15997C14.6549 6.95437 14.898 6.79121 15.1657 6.67988C15.4334 6.56855 15.7205 6.51123 16.0105 6.51123C16.3004 6.51123 16.5875 6.56855 16.8552 6.67988C17.1229 6.79121 17.366 6.95437 17.5705 7.15997L18.2705 7.85997C18.6825 8.26997 19.2405 8.49997 19.8205 8.49997H20.8205C21.4039 8.49997 21.9635 8.73176 22.3761 9.14434C22.7887 9.55692 23.0205 10.1165 23.0205 10.7V11.7C23.0205 12.28 23.2505 12.838 23.6605 13.25L24.3605 13.95C24.5661 14.1544 24.7292 14.3975 24.8406 14.6652C24.9519 14.9329 25.0092 15.22 25.0092 15.51C25.0092 15.7999 24.9519 16.087 24.8406 16.3547C24.7292 16.6225 24.5661 16.8655 24.3605 17.07L23.6605 17.77C23.2509 18.1819 23.0208 18.7391 23.0205 19.32V20.32C23.0205 20.9034 22.7887 21.463 22.3761 21.8756C21.9635 22.2882 21.4039 22.52 20.8205 22.52H19.8205C19.2396 22.5203 18.6824 22.7504 18.2705 23.16L17.5705 23.86C17.366 24.0656 17.1229 24.2287 16.8552 24.3401C16.5875 24.4514 16.3004 24.5087 16.0105 24.5087C15.7205 24.5087 15.4334 24.4514 15.1657 24.3401C14.898 24.2287 14.6549 24.0656 14.4505 23.86L13.7505 23.16C13.3386 22.7504 12.7814 22.5203 12.2005 22.52H11.2005C10.617 22.52 10.0574 22.2882 9.64483 21.8756C9.23225 21.463 9.00046 20.9034 9.00046 20.32V19.32C9.00013 18.7391 8.77006 18.1819 8.36046 17.77L7.66046 17.07C7.45486 16.8655 7.2917 16.6225 7.18037 16.3547C7.06903 16.087 7.01172 15.7999 7.01172 15.51C7.01172 15.22 7.06903 14.9329 7.18037 14.6652C7.2917 14.3975 7.45486 14.1544 7.66046 13.95L8.36046 13.25C8.77006 12.8381 9.00013 12.2809 9.00046 11.7V10.7Z" stroke="white" stroke-width="1.2" stroke-linecap="round" stroke-linejoin="round"/>
<path d="M13 15.5L15 17.5L19 13.5" stroke="white" stroke-width="1.2" stroke-linecap="round" stroke-linejoin="round"/>
</g>
<defs>
<clipPath id="clip0_1069_1748">
<rect width="24" height="24" fill="white" transform="translate(4 3.5)"/>
</clipPath>
</defs>
</svg>
