<svg width="32" height="31" viewBox="0 0 32 31" fill="none" xmlns="http://www.w3.org/2000/svg">
<rect x="0.722168" y="0.222168" width="30.5556" height="30.5556" rx="15.2778" fill="#525D45"/>
<g clip-path="url(#clip0_1069_1723)">
<path d="M9.83366 21.5833C10.2094 21.5833 10.5697 21.434 10.8354 21.1683C11.1011 20.9026 11.2503 20.5423 11.2503 20.1666C11.2503 19.7909 11.1011 19.4305 10.8354 19.1649C10.5697 18.8992 10.2094 18.7499 9.83366 18.7499C9.45794 18.7499 9.0976 18.8992 8.83192 19.1649C8.56625 19.4305 8.41699 19.7909 8.41699 20.1666C8.41699 20.5423 8.56625 20.9026 8.83192 21.1683C9.0976 21.434 9.45794 21.5833 9.83366 21.5833Z" stroke="white" stroke-width="0.772727" stroke-linecap="round" stroke-linejoin="round"/>
<path d="M14.0837 10.25C14.4594 10.25 14.8197 10.1007 15.0854 9.83507C15.3511 9.56939 15.5003 9.20906 15.5003 8.83333C15.5003 8.45761 15.3511 8.09728 15.0854 7.8316C14.8197 7.56592 14.4594 7.41667 14.0837 7.41667C13.7079 7.41667 13.3476 7.56592 13.0819 7.8316C12.8162 8.09728 12.667 8.45761 12.667 8.83333C12.667 9.20906 12.8162 9.56939 13.0819 9.83507C13.3476 10.1007 13.7079 10.25 14.0837 10.25Z" stroke="white" stroke-width="0.772727" stroke-linecap="round" stroke-linejoin="round"/>
<path d="M15.4997 21.5833C15.8754 21.5833 16.2357 21.434 16.5014 21.1683C16.7671 20.9026 16.9163 20.5423 16.9163 20.1666C16.9163 19.7909 16.7671 19.4305 16.5014 19.1649C16.2357 18.8992 15.8754 18.7499 15.4997 18.7499C15.124 18.7499 14.7636 18.8992 14.4979 19.1649C14.2323 19.4305 14.083 19.7909 14.083 20.1666C14.083 20.5423 14.2323 20.9026 14.4979 21.1683C14.7636 21.434 15.124 21.5833 15.4997 21.5833Z" stroke="white" stroke-width="0.772727" stroke-linecap="round" stroke-linejoin="round"/>
<path d="M21.1667 21.5833C21.5424 21.5833 21.9027 21.434 22.1684 21.1683C22.4341 20.9026 22.5833 20.5423 22.5833 20.1666C22.5833 19.7909 22.4341 19.4305 22.1684 19.1649C21.9027 18.8992 21.5424 18.7499 21.1667 18.7499C20.7909 18.7499 20.4306 18.8992 20.1649 19.1649C19.8993 19.4305 19.75 19.7909 19.75 20.1666C19.75 20.5423 19.8993 20.9026 20.1649 21.1683C20.4306 21.434 20.7909 21.5833 21.1667 21.5833Z" stroke="white" stroke-width="0.772727" stroke-linecap="round" stroke-linejoin="round"/>
<path d="M15.5 18.75V16.625C15.5 16.4371 15.5746 16.257 15.7075 16.1241C15.8403 15.9913 16.0205 15.9167 16.2083 15.9167H20.4583C20.6462 15.9167 20.8264 15.9913 20.9592 16.1241C21.092 16.257 21.1667 16.4371 21.1667 16.625V18.75" stroke="white" stroke-width="0.772727" stroke-linecap="round" stroke-linejoin="round"/>
<path d="M9.83301 18.75V13.7917C9.83301 13.6038 9.90764 13.4236 10.0405 13.2908C10.1733 13.158 10.3535 13.0833 10.5413 13.0833H17.6247C17.8125 13.0833 17.9927 13.158 18.1255 13.2908C18.2584 13.4236 18.333 13.6038 18.333 13.7917V15.2083" stroke="white" stroke-width="0.772727" stroke-linecap="round" stroke-linejoin="round"/>
<path d="M14.083 13.0833V10.2499" stroke="white" stroke-width="0.772727" stroke-linecap="round" stroke-linejoin="round"/>
</g>
<defs>
<clipPath id="clip0_1069_1723">
<rect width="17" height="17" fill="white" transform="matrix(0 -1 1 0 7 23)"/>
</clipPath>
</defs>
</svg>
