<svg width="32" height="31" viewBox="0 0 32 31" fill="none" xmlns="http://www.w3.org/2000/svg">
<rect x="0.722168" y="0.222168" width="30.5556" height="30.5556" rx="15.2778" fill="#525D45"/>
<g clip-path="url(#clip0_1069_1807)">
<path d="M13 8.5H11C10.4696 8.5 9.96086 8.71071 9.58579 9.08579C9.21071 9.46086 9 9.96957 9 10.5V22.5C9 23.0304 9.21071 23.5391 9.58579 23.9142C9.96086 24.2893 10.4696 24.5 11 24.5H21C21.5304 24.5 22.0391 24.2893 22.4142 23.9142C22.7893 23.5391 23 23.0304 23 22.5V10.5C23 9.96957 22.7893 9.46086 22.4142 9.08579C22.0391 8.71071 21.5304 8.5 21 8.5H19" stroke="white" stroke-width="1.2" stroke-linecap="round" stroke-linejoin="round"/>
<path d="M13 8.5C13 7.96957 13.2107 7.46086 13.5858 7.08579C13.9609 6.71071 14.4696 6.5 15 6.5H17C17.5304 6.5 18.0391 6.71071 18.4142 7.08579C18.7893 7.46086 19 7.96957 19 8.5C19 9.03043 18.7893 9.53914 18.4142 9.91421C18.0391 10.2893 17.5304 10.5 17 10.5H15C14.4696 10.5 13.9609 10.2893 13.5858 9.91421C13.2107 9.53914 13 9.03043 13 8.5Z" stroke="white" stroke-width="1.2" stroke-linecap="round" stroke-linejoin="round"/>
<path d="M18 14.5H15.5C15.1022 14.5 14.7206 14.658 14.4393 14.9393C14.158 15.2206 14 15.6022 14 16C14 16.3978 14.158 16.7794 14.4393 17.0607C14.7206 17.342 15.1022 17.5 15.5 17.5H16.5C16.8978 17.5 17.2794 17.658 17.5607 17.9393C17.842 18.2206 18 18.6022 18 19C18 19.3978 17.842 19.7794 17.5607 20.0607C17.2794 20.342 16.8978 20.5 16.5 20.5H14" stroke="white" stroke-width="1.2" stroke-linecap="round" stroke-linejoin="round"/>
<path d="M16 20.5V21.5M16 13.5V14.5" stroke="white" stroke-width="1.2" stroke-linecap="round" stroke-linejoin="round"/>
</g>
<defs>
<clipPath id="clip0_1069_1807">
<rect width="24" height="24" fill="white" transform="translate(4 3.5)"/>
</clipPath>
</defs>
</svg>
