<svg width="32" height="31" viewBox="0 0 32 31" fill="none" xmlns="http://www.w3.org/2000/svg">
<rect x="0.722168" y="0.222168" width="30.5556" height="30.5556" rx="15.2778" fill="#525D45"/>
<g clip-path="url(#clip0_1069_1797)">
<path d="M7 15.5C7 16.6819 7.23279 17.8522 7.68508 18.9442C8.13738 20.0361 8.80031 21.0282 9.63604 21.864C10.4718 22.6997 11.4639 23.3626 12.5558 23.8149C13.6478 24.2672 14.8181 24.5 16 24.5C17.1819 24.5 18.3522 24.2672 19.4442 23.8149C20.5361 23.3626 21.5282 22.6997 22.364 21.864C23.1997 21.0282 23.8626 20.0361 24.3149 18.9442C24.7672 17.8522 25 16.6819 25 15.5C25 14.3181 24.7672 13.1478 24.3149 12.0558C23.8626 10.9639 23.1997 9.97177 22.364 9.13604C21.5282 8.30031 20.5361 7.63738 19.4442 7.18508C18.3522 6.73279 17.1819 6.5 16 6.5C14.8181 6.5 13.6478 6.73279 12.5558 7.18508C11.4639 7.63738 10.4718 8.30031 9.63604 9.13604C8.80031 9.97177 8.13738 10.9639 7.68508 12.0558C7.23279 13.1478 7 14.3181 7 15.5Z" stroke="white" stroke-width="1.2" stroke-linecap="round" stroke-linejoin="round"/>
<path d="M18.8 12.4999C18.6188 12.1857 18.3557 11.9266 18.0386 11.7505C17.7215 11.5743 17.3625 11.4877 17 11.4999H15C14.4696 11.4999 13.9609 11.7106 13.5858 12.0857C13.2107 12.4608 13 12.9695 13 13.4999C13 14.0303 13.2107 14.5391 13.5858 14.9141C13.9609 15.2892 14.4696 15.4999 15 15.4999H17C17.5304 15.4999 18.0391 15.7106 18.4142 16.0857C18.7893 16.4608 19 16.9695 19 17.4999C19 18.0303 18.7893 18.5391 18.4142 18.9141C18.0391 19.2892 17.5304 19.4999 17 19.4999H15C14.6375 19.5121 14.2785 19.4255 13.9614 19.2494C13.6443 19.0732 13.3812 18.8142 13.2 18.4999" stroke="white" stroke-width="1.2" stroke-linecap="round" stroke-linejoin="round"/>
<path d="M16 10.5V20.5" stroke="white" stroke-width="1.2" stroke-linecap="round" stroke-linejoin="round"/>
</g>
<defs>
<clipPath id="clip0_1069_1797">
<rect width="24" height="24" fill="white" transform="translate(4 3.5)"/>
</clipPath>
</defs>
</svg>
