<svg width="40" height="41" viewBox="0 0 40 41" fill="none" xmlns="http://www.w3.org/2000/svg">
<rect y="0.5" width="40" height="40" rx="20" fill="#6B7478" fill-opacity="0.3"/>
<rect x="7.77734" y="8.27783" width="24.4444" height="24.4444" rx="12.2222" fill="#5B684B"/>
<g clip-path="url(#clip0_734_4411)">
<path d="M15.75 25.5V24.25C15.75 23.2554 16.1451 22.3016 16.8483 21.5983C17.5516 20.8951 18.5054 20.5 19.5 20.5C20.4946 20.5 21.4484 20.8951 22.1517 21.5983C22.8549 22.3016 23.25 23.2554 23.25 24.25V25.5C23.25 25.6658 23.1842 25.8247 23.0669 25.9419C22.9497 26.0592 22.7908 26.125 22.625 26.125H16.375C16.2092 26.125 16.0503 26.0592 15.9331 25.9419C15.8158 25.8247 15.75 25.6658 15.75 25.5Z" stroke="white" stroke-linecap="round" stroke-linejoin="round"/>
<path d="M15.75 15.5V16.75C15.75 17.7446 16.1451 18.6984 16.8483 19.4017C17.5516 20.1049 18.5054 20.5 19.5 20.5C20.4946 20.5 21.4484 20.1049 22.1517 19.4017C22.8549 18.6984 23.25 17.7446 23.25 16.75V15.5C23.25 15.3342 23.1842 15.1753 23.0669 15.0581C22.9497 14.9408 22.7908 14.875 22.625 14.875H16.375C16.2092 14.875 16.0503 14.9408 15.9331 15.0581C15.8158 15.1753 15.75 15.3342 15.75 15.5Z" stroke="white" stroke-linecap="round" stroke-linejoin="round"/>
</g>
<defs>
<clipPath id="clip0_734_4411">
<rect width="15" height="15" fill="white" transform="translate(12 13)"/>
</clipPath>
</defs>
</svg>
