<svg width="32" height="32" viewBox="0 0 32 32" fill="none" xmlns="http://www.w3.org/2000/svg">
<rect x="0.722168" y="0.722168" width="30.5556" height="30.5556" rx="15.2778" fill="#525D45"/>
<g clip-path="url(#clip0_1069_1778)">
<path d="M7 16C7 17.1819 7.23279 18.3522 7.68508 19.4442C8.13738 20.5361 8.80031 21.5282 9.63604 22.364C10.4718 23.1997 11.4639 23.8626 12.5558 24.3149C13.6478 24.7672 14.8181 25 16 25C17.1819 25 18.3522 24.7672 19.4442 24.3149C20.5361 23.8626 21.5282 23.1997 22.364 22.364C23.1997 21.5282 23.8626 20.5361 24.3149 19.4442C24.7672 18.3522 25 17.1819 25 16C25 14.8181 24.7672 13.6478 24.3149 12.5558C23.8626 11.4639 23.1997 10.4718 22.364 9.63604C21.5282 8.80031 20.5361 8.13738 19.4442 7.68508C18.3522 7.23279 17.1819 7 16 7C14.8181 7 13.6478 7.23279 12.5558 7.68508C11.4639 8.13738 10.4718 8.80031 9.63604 9.63604C8.80031 10.4718 8.13738 11.4639 7.68508 12.5558C7.23279 13.6478 7 14.8181 7 16Z" stroke="white" stroke-width="1.2" stroke-linecap="round" stroke-linejoin="round"/>
<path d="M16 11V16" stroke="white" stroke-width="1.2" stroke-linecap="round" stroke-linejoin="round"/>
</g>
<defs>
<clipPath id="clip0_1069_1778">
<rect width="24" height="24" fill="white" transform="translate(4 4)"/>
</clipPath>
</defs>
</svg>
