<svg width="32" height="31" viewBox="0 0 32 31" fill="none" xmlns="http://www.w3.org/2000/svg">
<g clip-path="url(#clip0_1069_1827)">
<rect x="0.722168" y="0.222168" width="30.5556" height="30.5556" rx="15.2778" fill="#525D45"/>
<g clip-path="url(#clip1_1069_1827)">
<path d="M13.9997 6.69998C12.4354 7.06262 10.9966 7.83718 9.8326 8.94332C8.66856 10.0495 7.82166 11.4469 7.37975 12.9907C6.93783 14.5344 6.917 16.1683 7.31941 17.7229C7.72182 19.2774 8.53281 20.696 9.66827 21.8314C10.8037 22.9669 12.2223 23.7779 13.7768 24.1803C15.3314 24.5827 16.9653 24.5619 18.509 24.12C20.0528 23.678 21.4502 22.8311 22.5564 21.6671C23.6625 20.5031 24.4371 19.0643 24.7997 17.5C24.7997 17.2348 24.6944 16.9804 24.5068 16.7929C24.3193 16.6053 24.0649 16.5 23.7997 16.5H16.9997C16.4693 16.5 15.9606 16.2893 15.5855 15.9142C15.2104 15.5391 14.9997 15.0304 14.9997 14.5V7.49998C14.9873 7.38151 14.9515 7.26668 14.8943 7.16215C14.8372 7.05763 14.7599 6.96548 14.6669 6.89107C14.5738 6.81665 14.467 6.76144 14.3524 6.72864C14.2379 6.69584 14.118 6.6861 13.9997 6.69998Z" stroke="white" stroke-width="1.2" stroke-linecap="round" stroke-linejoin="round"/>
<path d="M19 7C20.2697 7.44708 21.423 8.1733 22.3748 9.12516C23.3267 10.077 24.0529 11.2303 24.5 12.5H20C19.7348 12.5 19.4804 12.3946 19.2929 12.2071C19.1054 12.0196 19 11.7652 19 11.5V7Z" stroke="white" stroke-width="1.2" stroke-linecap="round" stroke-linejoin="round"/>
</g>
</g>
<defs>
<clipPath id="clip0_1069_1827">
<rect x="0.722168" y="0.222168" width="30.5556" height="30.5556" rx="15.2778" fill="white"/>
</clipPath>
<clipPath id="clip1_1069_1827">
<rect width="24" height="24" fill="white" transform="translate(4 3.5)"/>
</clipPath>
</defs>
</svg>
