<svg width="52" height="52" viewBox="0 0 52 52" fill="none" xmlns="http://www.w3.org/2000/svg">
<path d="M23 1.73205C24.8564 0.660254 27.1436 0.660254 29 1.73205L45.5167 11.2679C47.3731 12.3397 48.5167 14.3205 48.5167 16.4641V35.5359C48.5167 37.6795 47.3731 39.6603 45.5167 40.7321L29 50.2679C27.1436 51.3397 24.8564 51.3397 23 50.2679L6.48334 40.7321C4.62693 39.6603 3.48334 37.6795 3.48334 35.5359V16.4641C3.48334 14.3205 4.62693 12.3397 6.48334 11.2679L23 1.73205Z" fill="#3D4B64"/>
<ellipse cx="11.1252" cy="18.9091" rx="11.1252" ry="18.9091" transform="matrix(-0.866025 0.5 0.5 0.866025 26.3604 3.54541)" fill="#F4F4F4"/>
</svg>
